<?xml version="1.0" encoding="UTF-8" standalone="no"?>
<svg
   xmlns:dc="http://purl.org/dc/elements/1.1/"
   xmlns:cc="http://creativecommons.org/ns#"
   xmlns:rdf="http://www.w3.org/1999/02/22-rdf-syntax-ns#"
   xmlns:svg="http://www.w3.org/2000/svg"
   xmlns="http://www.w3.org/2000/svg"
   xmlns:sodipodi="http://sodipodi.sourceforge.net/DTD/sodipodi-0.dtd"
   xmlns:inkscape="http://www.inkscape.org/namespaces/inkscape"
   width="89.09436mm"
   height="130.87323mm"
   viewBox="0 0 89.09436 130.87323"
   version="1.1"
   id="svg8"
   sodipodi:docname="computer-scissor.svg"
   inkscape:version="1.0.1 (c497b03c, 2020-09-10)">
  <defs
     id="defs2" />
  <sodipodi:namedview
     id="base"
     pagecolor="#ffffff"
     bordercolor="#666666"
     borderopacity="1.0"
     inkscape:pageopacity="0.0"
     inkscape:pageshadow="2"
     inkscape:zoom="0.19500805"
     inkscape:cx="-1970.868"
     inkscape:cy="58.705112"
     inkscape:document-units="mm"
     inkscape:current-layer="layer1"
     inkscape:document-rotation="0"
     showgrid="false"
     inkscape:snap-bbox="true"
     inkscape:bbox-paths="true"
     inkscape:snap-bbox-edge-midpoints="true"
     inkscape:snap-bbox-midpoints="true"
     inkscape:bbox-nodes="true"
     inkscape:snap-global="true"
     inkscape:window-width="1252"
     inkscape:window-height="697"
     inkscape:window-x="1370"
     inkscape:window-y="23"
     inkscape:window-maximized="0"
     inkscape:object-paths="true"
     inkscape:snap-intersection-paths="true"
     inkscape:snap-smooth-nodes="true"
     inkscape:snap-midpoints="true"
     inkscape:snap-nodes="false" />
  <metadata
     id="metadata5">
    <rdf:RDF>
      <cc:Work
         rdf:about="">
        <dc:format>image/svg+xml</dc:format>
        <dc:type
           rdf:resource="http://purl.org/dc/dcmitype/StillImage" />
        <dc:title></dc:title>
      </cc:Work>
    </rdf:RDF>
  </metadata>
  <g
     inkscape:label="Layer 1"
     inkscape:groupmode="layer"
     id="layer1"
     transform="translate(154.64871,-64.113856)">
    <path
       id="path1246"
       style="fill:#000000;stroke-width:0.317233"
       d="m -148.64614,64.113856 -0.0909,2.94142 -0.0915,2.941423 -2.85512,0.158647 -2.85513,0.158647 v 8.882663 8.88266 l 2.93419,0.09095 2.93471,0.09147 v 11.725899 11.725375 h 2.85512 2.80086 l -0.0294,3.09284 -0.0832,8.64495 h -2.68821 -2.85512 v 0.15864 h -0.15813 v 2.85461 2.69699 h -2.69131 c -1.56565,0 -2.27425,0.0143 -2.62775,0.15813 h -0.39119 v 0.54312 c -0.001,0.005 -0.002,0.008 -0.004,0.0124 -0.096,0.39258 -0.13397,5.78149 -0.0853,11.9755 l 0.0884,11.26184 h 5.3e-4 v 0.3173 h 2.85513 2.85512 v 5.86888 5.86889 h 2.84789 2.8484 l 0.0863,5.94796 0.0863,5.94796 2.93419,0.0915 2.93419,0.0909 v 8.65942 c 0,4.01064 0.0678,7.44418 0.15864,8.50749 v 0.41961 l 1.17771,-0.003 c 3.42937,0.0907 14.99558,0.15814 28.69541,0.15814 h 29.608524 v -0.31678 l 0.0863,-5.60999 c 0.01651,-6.94729 0.09046,-8.53077 0.03566,-11.42928 0.01294,-0.19181 0.105584,-0.31834 0.366387,-0.40876 h 2.362128 2.849957 l 0.0031,-0.3173 h 0.0062 l 0.158647,-8.88266 0.156064,-8.72401 h 2.858223 3.01377 v -17.76533 -17.7648 h -5.29e-4 v -0.3173 h -3.013768 -3.013771 v -3.01376 -3.01378 h -2.843236 -2.843236 l -0.09095,-2.93418 -0.09095,-2.93419 -5.948477,-0.0863 -0.07855,-0.001 v -2.78017 -2.84323 h -3.013771 -2.855638 v -0.15813 h -0.158109 v -2.697 -2.85512 h -5.552117 v -3.171898 -8.724016 h 2.855124 2.855124 v -9.041307 -9.04131 h -2.843239 -2.843237 l -0.09147,-2.934187 -0.09095,-2.934189 -5.94796,-0.0863 c -4.6401,-0.06732 -5.95165,0.0021 -5.96604,0.316777 -0.01,0.221949 -0.0458,1.545593 -0.0796,2.941421 l -0.0615,2.538346 -2.79363,0.04393 c -1.53649,0.02442 -2.86402,0.115356 -2.95072,0.202055 -0.0867,0.08661 -0.15761,3.892899 -0.15761,8.458914 0,4.566002 -0.0794,8.508129 -0.17622,8.76019 -0.13508,0.351999 -0.82974,0.458369 -2.99672,0.458369 h -2.82101 c 0.17369,6.140609 -0.15814,11.796898 -0.15814,17.765325 h -2.69699 -2.67684 l -0.0863,-2.61741 -0.092,-2.77606 v -3.477443 -8.870775 l -2.93471,-0.09095 -2.93418,-0.09147 -0.0646,-8.682673 c -0.0355,-4.775501 -0.13928,-8.757356 -0.23048,-8.848555 -0.0912,-0.09046 -1.37722,-0.136888 -2.8577,-0.101288 l -2.69183,0.0646 -0.0915,-2.953827 -0.0915,-2.953824 -5.93607,-0.0863 z"
       sodipodi:nodetypes="cccccccccccccccccccccsccccccccccccccccccscccsccccccccccccccccccccccccccccccccccccccccccccccscccccscscccccccccccccccccc" />
    <path
       id="path1248"
       style="fill:#87cdde;fill-opacity:1;stroke-width:0.317233"
       d="m -148.51178,70.47264 v 8.56485 8.56537 l 2.90059,5.16e-4 c 2.39726,9e-5 2.93533,0.09025 3.10059,0.520898 0.10989,0.28657 0.18925,5.604082 0.17622,11.81685 l -0.0238,11.295946 2.87115,0.0915 2.71301,0.0858 v 12.23078 h 26.15965 6.27971 v 15.53135 h -6.27971 v 6.17844 h -29.20959 v -6.17844 h 29.20959 v -9.35291 h -28.53625 c -0.9051,0.0384 -2.13192,0.0139 -3.8194,-0.0253 v -0.003 h -0.1571 -2.61379 -2.77089 l 0.002,0.20568 h -0.002 v 11.54348 11.544 l 2.9347,0.0909 2.93419,0.0915 0.0863,5.78931 0.0868,5.78983 h 2.84789 2.84789 v 5.85701 5.85649 l 2.93419,0.0915 2.9347,0.091 0.0863,5.94847 0.0863,5.94796 h 23.4611 23.461619 l 0.0021,-0.15865 h 0.170531 c -0.0079,-3.24349 -0.0087,-6.2409 -0.03824,-9.07386 l 0.03876,-2.66392 2.944521,-0.0915 2.944009,-0.0909 -0.0016,-0.13436 c 0.05397,-3e-5 0.08517,0 0.140041,0 v -8.87956 -8.04396 c 0.395793,-1.00464 1.304375,-0.72557 3.303675,-0.63096 l 2.249993,0.10645 v -0.16278 l 0.157612,0.004 v -17.52709 -17.5271 h -2.855121 -2.855124 v -3.02617 -3.02617 l -2.77554,0.092 -2.396755,0.0791 -0.37982,-0.0134 v 0.0672 l -0.06873,5.51026 c -0.0361,2.90829 -0.06738,5.24493 -0.07545,5.67665 -0.01551,0.15731 -0.03133,0.28091 -0.04806,0.32453 -0.01766,0.046 -0.04215,0.0877 -0.07286,0.12609 -0.2851,0.16799 -1.137653,0.20361 -2.985863,0.14935 l -3.072164,-0.0899 c -0.01086,-0.0161 -0.01867,-0.0326 -0.02274,-0.0501 l -0.0057,-0.62683 c -0.0031,-0.68663 -8.33e-4,-5.29205 0.0067,-11.29957 l 0.01447,-11.49955 h -5.876126 -5.876128 v 8.89402 5.94745 l -3.09335,-0.091 -2.93419,-0.0863 v -6.2575 -9.00617 c 0.14988,-1.4e-4 0.41376,-10e-4 0.97048,0.006 1.58677,0.0201 2.55294,0.0381 3.27422,0.0501 l 1.62419,0.0351 v -4.87412 c 0.009,-0.45664 0.0224,-0.925476 0.0465,-1.423171 l -0.0465,0.0031 v -2.730582 -9.024773 h 2.855127 2.854605 v -8.565367 -8.565369 h -5.709732 -5.71025 v 8.882663 8.88266 h -2.85512 -2.85512 v 8.882144 8.882665 h -3.00912 -3.0086 l -0.002,0.14676 -0.16692,-0.003 v 8.90126 6.19859 l -3.09283,-0.091 -2.95899,-0.0868 -0.06,-6.25078 -0.0847,-8.79171 -2.92902,-0.0909 -2.92953,-0.0915 -0.0842,-8.803078 -0.0842,-8.803595 h -2.85047 -2.84996 V 79.355523 70.47286 h -5.78931 z" />
    <g
       id="g1510"
       transform="translate(244.08965,-2.8709978)"
       style="fill:#2c89a0;fill-opacity:1">
      <path
         id="path1488"
         style="fill:#2c89a0;fill-opacity:1;stroke:none;stroke-width:2.38705;stroke-linecap:square"
         d="m -383.86313,148.22614 h 28.96741 v 6.17843 h -28.96741 z" />
      <path
         id="path1490"
         style="fill:#2c89a0;fill-opacity:1;stroke:none;stroke-width:2.73031;stroke-linecap:square"
         d="m -392.67206,132.69479 h 37.89743 v 6.17843 h -37.89743 z" />
      <path
         id="path1492"
         style="fill:#2c89a0;fill-opacity:1;stroke:none;stroke-width:1.74352;stroke-linecap:square"
         d="m -342.3846,126.65322 v 15.45395 h -6.17843 v -15.45395 z" />
      <path
         id="path1494"
         style="fill:#2c89a0;fill-opacity:1;stroke:none;stroke-width:1.12019;stroke-linecap:square"
         d="m -354.89572,142.04771 h 6.37921 v 6.17843 h -6.37921 z" />
      <path
         id="path1496"
         style="fill:#2c89a0;fill-opacity:1;stroke:none;stroke-width:1.55654;stroke-linecap:square"
         d="m -387.21088,156.13901 h 6.37921 v 11.92938 h -6.37921 z" />
      <path
         id="path1498"
         style="fill:#2c89a0;fill-opacity:1;stroke:none;stroke-width:1.55693;stroke-linecap:square"
         d="m -381.19394,168.06839 h 6.37921 v 11.93525 h -6.37921 z" />
      <path
         id="path1500"
         style="fill:#2c89a0;fill-opacity:1;stroke:none;stroke-width:1.55693;stroke-linecap:square"
         d="m -375.3439,179.47447 h 6.37921 v 11.93525 h -6.37921 z" />
      <path
         id="path1502"
         style="fill:#2c89a0;fill-opacity:1;stroke:none;stroke-width:1.85594;stroke-linecap:square"
         d="m -315.91746,144.7863 h -6.37921 v 16.95994 h 6.37921 z" />
      <path
         id="path1504"
         style="fill:#2c89a0;fill-opacity:1;stroke:none;stroke-width:1.92563;stroke-linecap:square"
         d="m -321.9344,161.74624 h -6.37921 v 18.2574 h 6.37921 z" />
      <path
         id="path1506"
         style="fill:#2c89a0;fill-opacity:1;stroke:none;stroke-width:1.55693;stroke-linecap:square"
         d="m -327.78444,179.47447 h -6.37921 v 11.93525 h 6.37921 z" />
      <path
         id="path1508"
         style="fill:#2c89a0;fill-opacity:1;stroke:none;stroke-width:3.07779;stroke-linecap:square"
         d="m -327.78444,191.51342 v -6.37921 h -46.64143 v 6.37921 z" />
    </g>
  </g>
</svg>
