<?xml version="1.0" encoding="UTF-8" standalone="no"?>
<svg
   xmlns:dc="http://purl.org/dc/elements/1.1/"
   xmlns:cc="http://creativecommons.org/ns#"
   xmlns:rdf="http://www.w3.org/1999/02/22-rdf-syntax-ns#"
   xmlns:svg="http://www.w3.org/2000/svg"
   xmlns="http://www.w3.org/2000/svg"
   xmlns:sodipodi="http://sodipodi.sourceforge.net/DTD/sodipodi-0.dtd"
   xmlns:inkscape="http://www.inkscape.org/namespaces/inkscape"
   width="88.984673mm"
   height="94.853172mm"
   viewBox="0 0 88.984672 94.853176"
   version="1.1"
   id="svg8"
   sodipodi:docname="computer-rock.svg"
   inkscape:version="1.0.1 (c497b03c, 2020-09-10)">
  <defs
     id="defs2" />
  <sodipodi:namedview
     id="base"
     pagecolor="#ffffff"
     bordercolor="#666666"
     borderopacity="1.0"
     inkscape:pageopacity="0.0"
     inkscape:pageshadow="2"
     inkscape:zoom="0.19500805"
     inkscape:cx="703.17611"
     inkscape:cy="100.68558"
     inkscape:document-units="mm"
     inkscape:current-layer="layer1"
     inkscape:document-rotation="0"
     showgrid="false"
     inkscape:snap-bbox="true"
     inkscape:bbox-paths="true"
     inkscape:snap-bbox-edge-midpoints="true"
     inkscape:snap-bbox-midpoints="true"
     inkscape:bbox-nodes="true"
     inkscape:snap-global="true"
     inkscape:window-width="1252"
     inkscape:window-height="697"
     inkscape:window-x="1370"
     inkscape:window-y="23"
     inkscape:window-maximized="0"
     inkscape:object-paths="true"
     inkscape:snap-intersection-paths="true"
     inkscape:snap-smooth-nodes="true"
     inkscape:snap-midpoints="true"
     inkscape:snap-nodes="false" />
  <metadata
     id="metadata5">
    <rdf:RDF>
      <cc:Work
         rdf:about="">
        <dc:format>image/svg+xml</dc:format>
        <dc:type
           rdf:resource="http://purl.org/dc/dcmitype/StillImage" />
        <dc:title></dc:title>
      </cc:Work>
    </rdf:RDF>
  </metadata>
  <g
     inkscape:label="Layer 1"
     inkscape:groupmode="layer"
     id="layer1"
     transform="translate(437.65171,-100.13391)">
    <path
       id="path1236"
       style="fill:#000000;stroke-width:0.317233"
       d="m -402.43831,100.13396 v 2.85512 2.85513 h -2.68407 -2.68408 l -0.092,-2.77554 -0.0915,-2.77606 h -6.02754 -6.02754 l -0.0915,2.76417 -0.0915,2.76417 -2.9223,0.0909 -2.92179,0.091 -0.0847,8.80308 -0.0842,8.8036 h -2.84996 -2.85047 v 2.85512 2.85513 h -2.85512 -2.85513 v 12.05456 12.05508 h 2.85513 2.85512 v 5.86889 5.86889 h 2.84841 2.84788 l 0.0863,5.94796 0.0863,5.94796 2.9347,0.0915 2.93419,0.0909 v 8.65942 c 0,4.76254 0.095,8.75442 0.21135,8.87078 0.11631,0.11638 13.5352,0.21136 29.81989,0.21136 h 29.60904 v -8.88267 -8.88214 h 2.84996 2.85047 l 0.0842,-8.96225 0.0842,-8.96172 h 3.01376 3.01377 v -17.76533 -17.7648 l -3.09283,-0.0909 -3.09335,-0.0904 v -3.0024 -3.0024 h -2.84324 -2.84324 l -0.0909,-2.93419 -0.0915,-2.9347 -2.93419,-0.091 -2.93471,-0.0915 v -2.84324 -2.84323 h -3.01325 -3.01377 v -2.85513 -2.85512 h -6.02754 -6.02754 v 2.86753 2.86752 l -2.77605,-0.0915 -2.77554,-0.092 -0.0915,-2.77554 -0.092,-2.77606 h -6.01513 z" />
    <path
       id="path1240"
       style="fill:#87cdde;stroke-width:0.317233"
       d="m -402.12153,106.14703 v 8.90127 5.14025 1.05833 2.39831 h 8.39432 3.19412 v -2.82309 l -0.01,-5.1e-4 -0.0641,-5.77743 -0.0641,-8.72401 -5.72523,-0.0868 z m -17.76533,0.0145 v 17.48369 h 11.58896 v -2.57969 l -0.01,-5.2e-4 -0.0847,-6.1004 -0.0842,-8.80308 h -5.70508 z m 35.53013,0 v 8.89403 5.41827 0.52917 8.44807 h 11.73107 c -0.004,-0.3069 -0.001,-5.52173 0.007,-11.78998 l 0.0145,-11.49956 h -5.87613 z m 0,23.28954 h -3.09076 v 9.72601 h -6.27972 v 6.17792 h -29.20959 v -6.17792 h 29.20959 v -9.35343 h -28.50472 c -0.93565,0.041 -2.2183,0.0132 -4.00803,-0.0284 l -2.69234,0.10284 -2.69234,0.10283 v 11.54348 11.544 l 2.93418,0.0909 2.93471,0.0915 0.0863,5.78931 0.0863,5.78983 h 2.8484 2.84789 v 5.857 5.85701 l 2.93419,0.091 2.9347,0.0909 0.0863,5.94847 0.0863,5.94796 h 23.46109 23.4611 l 0.0873,-5.94796 0.0863,-5.94847 2.944,-0.0909 2.94401,-0.0915 -0.0889,-8.72608 c -0.10288,-10.07787 -0.46755,-9.15197 3.53105,-8.96276 l 2.25051,0.10645 -0.001,-17.51521 v -5.8384 h -11.9357 v -5.79241 c -0.46026,0.0893 -1.22401,0.11886 -2.53267,0.11886 -1.57325,0 -2.42606,-0.0581 -2.78174,-0.19948 v 5.87303 h -11.93674 z m 18.08314,-11.57759 v 5.53868 c 0,3.04437 -0.087,5.76021 -0.19276,6.03891 h 11.29596 v -5.50096 l -2.8913,-0.0909 -2.8913,-0.0915 -0.0434,-2.85512 -0.0429,-2.85512 -2.61689,-0.092 z" />
    <path
       id="path1464"
       style="fill:#2c89a0;fill-opacity:1;stroke:none;stroke-width:2.38705;stroke-linecap:square"
       d="m -422.96515,145.355 h 28.96741 v 6.17843 h -28.96741 z" />
    <path
       id="path1466"
       style="fill:#2c89a0;fill-opacity:1;stroke:none;stroke-width:2.73031;stroke-linecap:square"
       d="m -431.77408,129.82365 h 37.89743 v 6.17843 h -37.89743 z" />
    <path
       id="path1468"
       style="fill:#2c89a0;fill-opacity:1;stroke:none;stroke-width:1.04566;stroke-linecap:square"
       d="m -384.13704,129.50141 v 9.73462 h -3.52801 v -9.73462 z" />
    <path
       id="path1470"
       style="fill:#2c89a0;fill-opacity:1;stroke:none;stroke-width:1.12019;stroke-linecap:square"
       d="m -393.99774,139.17657 h 6.37921 v 6.17843 h -6.37921 z" />
    <path
       id="path1472"
       style="fill:#2c89a0;fill-opacity:1;stroke:none;stroke-width:1.55654;stroke-linecap:square"
       d="m -426.3129,153.26787 h 6.37921 v 11.92938 h -6.37921 z" />
    <path
       id="path1474"
       style="fill:#2c89a0;fill-opacity:1;stroke:none;stroke-width:1.55693;stroke-linecap:square"
       d="m -420.29596,165.19725 h 6.37921 v 11.93525 h -6.37921 z" />
    <path
       id="path1476"
       style="fill:#2c89a0;fill-opacity:1;stroke:none;stroke-width:1.55693;stroke-linecap:square"
       d="m -414.44592,176.60333 h 6.37921 v 11.93525 h -6.37921 z" />
    <path
       id="path1478"
       style="fill:#2c89a0;fill-opacity:1;stroke:none;stroke-width:1.99716;stroke-linecap:square"
       d="m -355.01948,139.23603 h -6.37921 v 19.63907 h 6.37921 z" />
    <path
       id="path1480"
       style="fill:#2c89a0;fill-opacity:1;stroke:none;stroke-width:1.92563;stroke-linecap:square"
       d="m -361.03642,158.8751 h -6.37921 v 18.2574 h 6.37921 z" />
    <path
       id="path1482"
       style="fill:#2c89a0;fill-opacity:1;stroke:none;stroke-width:1.55693;stroke-linecap:square"
       d="m -366.88646,176.60333 h -6.37921 v 11.93525 h 6.37921 z" />
    <path
       id="path1484"
       style="fill:#2c89a0;fill-opacity:1;stroke:none;stroke-width:3.07779;stroke-linecap:square"
       d="m -366.88646,188.64228 v -6.37921 h -46.64143 v 6.37921 z" />
    <path
       id="path1523"
       style="fill:#2c89a0;fill-opacity:1;stroke:none;stroke-width:1.32061;stroke-linecap:square"
       d="m -387.66505,135.6222 h 15.15803 v 3.61383 h -15.15803 z" />
    <path
       id="path1525"
       style="fill:#2c89a0;fill-opacity:1;stroke:none;stroke-width:1.03422;stroke-linecap:square"
       d="m -372.50702,129.44377 h 5.43761 v 6.17843 h -5.43761 z" />
    <path
       id="path1527"
       style="fill:#2c89a0;fill-opacity:1;stroke:none;stroke-width:1.1772;stroke-linecap:square"
       d="m -367.06941,135.6222 h 12.04468 v 3.61383 h -12.04468 z" />
  </g>
</svg>
